<svg width="537" height="476" viewBox="0 0 537 476" fill="none" xmlns="http://www.w3.org/2000/svg">
<path d="M177.428 58.1294C178.845 57.9793 180.39 57.8329 181.787 58.1937C183.826 58.7208 185.773 60.2362 186.803 62.0674C187.762 63.7729 188.022 65.7947 187.391 67.6599C186.525 70.2162 184.569 71.5535 182.219 72.6196C180.891 72.8776 179.568 72.9921 178.232 72.6913C177.972 72.6336 177.715 72.5624 177.462 72.4776C177.209 72.3933 176.961 72.296 176.718 72.1856C176.475 72.0752 176.239 71.9522 176.009 71.8167C175.779 71.6817 175.557 71.5348 175.342 71.3761C175.127 71.2179 174.922 71.0486 174.725 70.8682C174.528 70.6884 174.341 70.4986 174.164 70.299C173.987 70.0994 173.82 69.8912 173.665 69.6743C173.51 69.4575 173.367 69.233 173.235 69.0009C173.109 68.7835 172.995 68.5608 172.892 68.3326C172.788 68.1039 172.697 67.8708 172.617 67.6333C172.537 67.3952 172.469 67.154 172.413 66.9095C172.357 66.6651 172.313 66.4187 172.282 66.1703C172.25 65.9214 172.232 65.6715 172.225 65.4207C172.219 65.1698 172.225 64.9194 172.244 64.6696C172.262 64.4192 172.293 64.1706 172.337 63.9237C172.38 63.6768 172.436 63.4326 172.503 63.1911C173.259 60.5327 175.093 59.3484 177.428 58.1294Z" fill="#A93339"/>
<path d="M219.39 36.5887C220.986 36.5858 222.502 36.6456 224.018 37.2008C224.28 37.2964 224.535 37.4053 224.785 37.5276C225.035 37.6493 225.278 37.7839 225.513 37.9312C225.749 38.0786 225.977 38.2378 226.196 38.4088C226.416 38.5793 226.626 38.7609 226.826 38.9536C227.027 39.1463 227.217 39.3489 227.397 39.5613C227.576 39.7732 227.744 39.994 227.901 40.2236C228.058 40.4538 228.202 40.6911 228.334 40.9356C228.467 41.18 228.586 41.4309 228.692 41.6881C229.499 43.6989 229.512 46.0342 228.611 48.0184C227.528 50.4047 225.655 51.6385 223.275 52.5094C222.198 52.6062 221.101 52.6986 220.023 52.5478C217.962 52.2602 215.878 50.9392 214.733 49.2049C214.581 48.9708 214.443 48.7293 214.316 48.4804C214.19 48.2315 214.078 47.977 213.979 47.7168C213.879 47.4561 213.794 47.1909 213.723 46.9213C213.652 46.6512 213.595 46.3785 213.553 46.103C213.51 45.8275 213.483 45.5505 213.47 45.272C213.457 44.9936 213.458 44.7151 213.474 44.4367C213.491 44.1582 213.522 43.8815 213.568 43.6065C213.613 43.331 213.673 43.0589 213.747 42.7903C214.605 39.5938 216.641 38.0828 219.39 36.5887Z" fill="#A93339"/>
<path d="M322.765 37.0662C324.311 36.9243 325.892 36.7394 327.401 37.2103C329.574 37.8882 331.515 39.5272 332.535 41.5609C333.455 43.3957 333.644 45.5056 332.974 47.452C332.067 50.0882 330.092 51.5113 327.711 52.7436C326.264 53.0903 324.849 53.2707 323.372 52.9935C321.186 52.5832 319.275 51.328 318.121 49.4133C316.978 47.5156 316.685 45.0827 317.283 42.9573C318.151 39.8739 320.041 38.4974 322.765 37.0662Z" fill="#A93339"/>
<path d="M362.579 58.4803C364.285 58.2363 365.987 58.1794 367.614 58.8255C367.872 58.928 368.123 59.0431 368.369 59.1707C368.615 59.2984 368.854 59.4379 369.086 59.5892C369.318 59.7409 369.541 59.9038 369.757 60.0778C369.973 60.2518 370.179 60.4359 370.376 60.63C370.573 60.8247 370.76 61.0287 370.937 61.2421C371.114 61.4555 371.279 61.6771 371.433 61.9067C371.588 62.1369 371.731 62.3739 371.861 62.6179C371.992 62.8623 372.11 63.1125 372.216 63.3682C372.323 63.6255 372.416 63.8877 372.497 64.1548C372.578 64.4214 372.645 64.6915 372.699 64.965C372.753 65.2386 372.794 65.5141 372.82 65.7915C372.847 66.069 372.86 66.3472 372.859 66.6261C372.858 66.9046 372.843 67.1826 372.814 67.46C372.786 67.7375 372.743 68.0128 372.687 68.2858C372.632 68.5588 372.562 68.8284 372.479 69.0945C372.397 69.3607 372.301 69.6221 372.193 69.8789C371.131 72.3421 369.235 73.7452 366.815 74.7092C365.449 74.7831 363.954 74.9155 362.614 74.6013C360.332 74.0653 358.189 72.5336 357.075 70.4562C356.947 70.2162 356.833 69.9703 356.731 69.7185C356.63 69.4666 356.541 69.2101 356.466 68.9489C356.391 68.6877 356.331 68.4233 356.284 68.1557C356.236 67.8881 356.203 67.6187 356.185 67.3477C356.166 67.0771 356.161 66.806 356.171 66.5345C356.181 66.2629 356.204 65.9926 356.242 65.7235C356.28 65.4544 356.332 65.1883 356.398 64.9251C356.464 64.6615 356.544 64.402 356.637 64.1467C357.688 61.237 359.91 59.7607 362.579 58.4803Z" fill="#A93339"/>
<path d="M490.369 362.781C492.641 362.437 495.25 362.604 497.524 362.88C503.999 363.665 509.365 366.069 513.436 371.286C506.033 376.139 498.234 377.596 489.57 378.073C481.225 377.888 473.692 376.628 465.746 374.071C475.314 369.088 478.716 364.093 490.369 362.781Z" fill="#0A5375"/>
<path d="M274.537 0.220215C276.778 5.08749 278.731 17.2986 280.664 23.4255C287.713 22.395 294.865 21.882 301.957 21.2122C295.893 25.8986 289.885 30.6552 283.932 35.4821C286.709 42.539 289.388 49.6248 292.261 56.6441C286.733 52.896 281.75 48.3866 276.286 44.5254L275.314 43.9296C272.571 44.2955 261.707 53.5643 258.541 55.8826C260.992 49.2515 263.322 42.5109 265.186 35.6905C259.029 31.6668 252.872 26.9983 247.186 22.3314C254.575 22.462 261.942 22.9415 269.286 23.77C270.875 15.891 272.867 8.08592 274.537 0.220215Z" fill="#A93339"/>
<path d="M504.78 226.895C504.839 226.939 504.908 226.97 504.955 227.026C505.347 227.483 505.427 227.679 505.42 228.284C505.341 234.535 498.235 244.11 494 248.36C476.085 266.34 450.837 272.46 426.19 272.498L425.838 272.156C426.215 271.539 426.066 271.595 426.556 271.29C429.056 269.733 431.79 268.359 434.148 266.587C441.164 261.313 446.389 253.102 449.014 244.837C466.096 242.518 490.885 237.325 504.78 226.895Z" fill="#0A5375"/>
<path d="M30.9632 226.62C46.5483 236.979 72.423 243.44 90.9585 244.97C93.1459 253.889 98.612 261.98 105.685 267.772C107.98 269.652 110.596 271.095 112.919 272.939L113.162 273.135C108.213 273.242 103.127 272.956 98.2061 272.435C75.4052 270.021 54.3652 263.273 39.4884 244.755C36.0028 240.415 30.3001 232.508 30.9632 226.62Z" fill="#0A5375"/>
<path d="M470.916 274.756C471.963 274.644 472.488 274.528 473.449 275.053C473.685 275.656 473.801 275.716 473.66 276.394C472.171 283.523 457.665 297.012 451.164 300.793C433.883 310.845 410.647 309.943 391.887 305.084C389.621 304.295 387.365 303.478 385.119 302.634C397.96 297.177 406.138 292.41 414.368 281.001C421.879 280.954 429.338 281.23 436.849 280.753C448.492 280.013 459.612 277.492 470.916 274.756Z" fill="#0A5375"/>
<path d="M62.3167 275.495C67.6083 276.424 72.7535 277.933 78.1006 278.74C94.0042 281.14 110.212 281.446 126.265 281.313C131.663 292.021 141.095 296.294 150.875 302.208C149.12 303.158 147.272 303.936 145.454 304.755C144.734 305.056 144.008 305.343 143.277 305.616C142.547 305.889 141.811 306.148 141.071 306.393C140.33 306.639 139.585 306.87 138.836 307.088C138.086 307.305 137.333 307.508 136.577 307.697C135.82 307.886 135.059 308.061 134.295 308.221C133.532 308.381 132.766 308.527 131.997 308.658C131.228 308.79 130.456 308.906 129.683 309.009C128.909 309.111 128.134 309.198 127.357 309.271C126.581 309.344 125.803 309.403 125.024 309.447C124.245 309.49 123.465 309.519 122.685 309.533C121.906 309.547 121.126 309.547 120.345 309.532C119.565 309.516 118.786 309.486 118.007 309.442C117.228 309.398 116.45 309.338 115.673 309.264C114.897 309.19 114.122 309.102 113.348 308.999C112.575 308.896 111.804 308.778 111.035 308.645C110.266 308.513 109.5 308.366 108.737 308.205C93.2273 304.92 79.4837 298.051 68.8325 286.18C67.0258 284.166 65.1022 282.088 63.6658 279.784C62.8231 278.431 61.9323 277.139 62.3167 275.495Z" fill="#0A5375"/>
<path d="M1.16446 121.48C2.98451 122.552 9.46041 131.261 12.2925 133.718C25.2835 144.989 42.3515 155.708 57.6822 163.478C57.6925 174.783 61.5707 183.581 68.5922 192.364C69.8836 193.979 72.8311 196.433 73.5629 198.222C71.6527 197.805 69.7555 197.334 67.8714 196.811C44.8184 190.255 18.8423 176.549 6.90701 154.962C2.00647 146.098 -1.66025 131.453 1.16446 121.48Z" fill="#0A5375"/>
<path d="M535.322 122.633C536.039 123.016 536.289 123.367 536.5 124.178C537.118 126.549 536.958 129.44 536.83 131.866C536.312 141.681 533.497 150.287 528.298 158.62C515.962 178.391 488.283 192.039 466.055 197.167C466.095 196.182 471.635 189.546 472.591 188.08C473.487 186.701 474.304 185.278 475.042 183.808C475.78 182.339 476.434 180.833 477.005 179.291C479.024 173.877 480.387 168.299 477.881 162.82C483.101 160.612 488.124 157.881 493.115 155.206C509.301 146.529 523.46 136.822 535.322 122.633Z" fill="#0A5375"/>
<path d="M530.468 75.272C531.212 75.2956 532.03 75.2638 532.712 75.615C533.516 76.0282 534.018 76.8496 534.339 77.662C537.293 85.1344 532.784 99.2158 529.861 106.27C529.553 106.998 529.236 107.722 528.911 108.442C528.585 109.163 528.251 109.879 527.908 110.591C527.565 111.304 527.214 112.012 526.853 112.715C526.494 113.419 526.125 114.118 525.747 114.813C525.37 115.508 524.985 116.198 524.59 116.883C524.196 117.568 523.794 118.248 523.383 118.924C522.973 119.599 522.554 120.27 522.127 120.935C521.7 121.601 521.265 122.26 520.822 122.915C520.379 123.569 519.928 124.218 519.468 124.862C519.009 125.506 518.543 126.144 518.068 126.776C517.593 127.408 517.111 128.035 516.621 128.655C516.132 129.276 515.635 129.89 515.129 130.498C514.625 131.106 514.113 131.708 513.593 132.304C513.074 132.9 512.547 133.49 512.013 134.073C511.479 134.656 510.938 135.232 510.391 135.802C509.843 136.371 509.288 136.934 508.726 137.491C508.164 138.047 507.596 138.597 507.021 139.139C506.446 139.681 505.864 140.216 505.276 140.744C504.688 141.273 504.094 141.794 503.493 142.307C502.892 142.821 502.285 143.328 501.672 143.826C501.058 144.325 500.439 144.816 499.814 145.3C499.189 145.784 498.558 146.26 497.921 146.729C497.284 147.197 496.642 147.657 495.994 148.11C495.346 148.563 494.692 149.008 494.033 149.445C493.374 149.881 492.71 150.31 492.041 150.73C491.372 151.151 490.697 151.564 490.018 151.968C489.339 152.372 488.654 152.768 487.965 153.155C487.276 153.542 486.583 153.921 485.884 154.291C485.186 154.662 484.483 155.024 483.776 155.377C483.069 155.731 482.357 156.075 481.642 156.411C480.927 156.748 480.207 157.075 479.483 157.393C478.76 157.712 478.033 158.021 477.302 158.322C478.657 156.719 479.788 155.122 480.872 153.324C483.499 148.051 486.06 141.793 486.224 135.819C486.378 130.214 483.695 126.018 478.391 124.056C477.018 123.548 475.259 123.432 474.25 122.379C474.67 120.765 477.05 119.645 478.392 118.802C492.153 110.155 505.519 102.077 517.049 90.4541C521.82 85.6452 525.713 80.0616 530.468 75.272Z" fill="#0A5375"/>
<path d="M512.927 5.81055C513.39 5.81646 513.89 5.80389 514.352 5.86673C515.556 6.03084 516.335 6.71761 517.045 7.6513C522.636 15.0069 524.357 36.9703 523.35 46.0195C520.569 71.0449 504.732 93.8317 485.481 109.274L480.172 113.231C481.827 109.636 483.523 106.052 484.834 102.314C488.682 91.3405 490.734 80.5576 485.484 69.7445C494.325 59.5657 503.43 38.0001 507.125 24.8228C508.799 18.8518 509.706 11.0763 512.927 5.81055Z" fill="#0A5375"/>
<path d="M4.22231 75.7627C5.05841 75.8011 5.99284 75.7509 6.76388 76.1331C10.5541 78.0093 14.4773 84.9664 17.7249 88.1652C21.4034 91.8398 25.2512 95.3274 29.2684 98.6279C33.2855 101.929 37.4529 105.028 41.7707 107.924C47.4171 111.66 55.6066 115.09 60.454 119.012C62.2962 120.503 63.8804 122.913 65.5674 124.658L60.0171 123.367C59.2209 123.596 58.4143 123.823 57.6433 124.127C54.9894 125.176 53.0259 127.455 52.0212 130.086C49.5676 136.51 51.7803 144.634 54.3314 150.679C55.8151 153.506 57.5805 156.048 59.4604 158.622C48.407 154.911 37.4342 146.774 29.1523 138.732C16.1798 126.135 6.59237 109.989 3.03211 92.1668C2.41039 89.0582 1.72436 85.8166 1.73249 82.6363C1.73989 79.8826 2.25736 77.7358 4.22231 75.7627Z" fill="#0A5375"/>
<path d="M530.285 175.918C530.588 176.264 530.619 176.224 530.747 176.701C532.008 181.406 528.989 189.687 526.942 193.997C516.929 215.084 490.018 226.55 469.038 233.581C462.523 235.764 455.851 237.466 449.377 239.754L448.103 236.349C446.904 235.173 445.756 234.599 444.203 233.985C444.467 233.782 444.729 233.578 444.99 233.372C453.77 226.441 461.608 216.043 462.927 204.659C484.667 200.223 513.465 190.87 530.285 175.918Z" fill="#0A5375"/>
<path d="M23.4328 5.77051C24.0035 6.07139 24.8233 6.39666 25.2713 6.88457C27.5408 9.36108 28.9964 17.4042 29.9353 20.736C35.1596 39.2752 42.6675 55.3814 53.0112 71.5563C47.5643 87.063 50.7816 98.6095 56.9884 113.131L53.7719 110.745C50.4526 108.314 47.1688 105.811 44.1364 103.027C27.41 87.6692 15.6092 66.4103 14.7176 43.4246C14.2977 32.6122 15.7556 14.1056 23.4328 5.77051Z" fill="#0A5375"/>
<path d="M6.50095 175.702C8.89467 176.388 18.4326 184.145 22.0749 186.139C39.5428 195.7 62.4827 203.859 82.0531 207.392C81.2192 210.267 80.6478 212.633 81.0898 215.667C82.3762 224.499 89.0361 231.966 95.8898 237.124C95.9356 237.281 95.8166 237.444 95.7619 237.597C93.0163 237.451 90.2729 237.27 87.5318 237.055C60.9968 234.87 34.2889 223.001 16.9711 202.384C11.077 195.367 5.71365 185.144 6.50095 175.702Z" fill="#0A5375"/>
<path d="M59.7067 78.5173C64.2842 82.306 68.1017 87.5459 72.1285 91.9275C78.3116 98.6173 84.7794 105.02 91.5318 111.136C109.519 127.555 130.664 140.176 152.329 151.072C158.786 154.319 165.479 157.12 171.891 160.443C178.421 163.828 184.818 168.886 187.05 176.191C191.279 190.034 177.292 209.262 170.66 220.919C166.631 228.001 162.856 235.254 159.002 242.433C153.905 235.057 151.207 225.735 149.076 217.103C147.82 212.181 146.913 207.195 146.354 202.145C145.968 198.618 146.03 194.293 145.107 190.928C144.905 190.194 144.435 189.436 143.885 188.912C143.064 188.133 141.942 187.828 140.833 188.014C139.624 188.216 138.564 188.985 137.877 189.983C135.549 193.368 137.222 201.502 137.799 205.325C139.84 218.855 143.502 233.191 149.768 245.415C152.79 251.205 156.038 256.865 159.512 262.395C163.591 268.78 176.367 285.06 177.491 291.312C177.687 292.402 177.685 293.658 176.919 294.543C175.457 296.231 172.509 296.909 170.397 297.057C157.116 297.984 144.772 290.054 135.27 281.659C140.413 281.618 152.217 282.178 156.188 278.841C157.21 277.981 157.952 276.801 157.936 275.423C157.913 273.375 156.312 272.148 154.5 271.692C151.426 270.92 147.26 271.598 144.023 271.521C130.386 271.193 118.746 267.888 108.473 258.584C104.541 254.589 102.119 250.149 100.252 244.899C110.425 247.487 123.683 251.368 134.176 250.784C135.813 250.693 137.672 250.272 138.705 248.879C139.423 247.909 139.619 246.37 139.252 245.22C138.811 243.838 137.321 242.894 136.013 242.436C133.265 241.476 130.02 241.678 127.158 241.075C119.639 239.491 111.072 235.816 104.607 231.728C97.7733 227.407 91.7609 222.239 89.9202 214.026C95.8202 216.6 119.893 222.233 126.248 222.086C127.884 222.048 129.552 221.618 130.664 220.342C131.367 219.535 132.03 218.095 131.83 217.002C131.543 215.436 129.892 214.565 128.583 214.003C125.04 212.48 120.919 211.891 117.172 210.93C108.277 208.649 99.3465 205.275 91.6375 200.253C79.4789 192.333 69.2106 182.658 66.0784 168.061C71.5725 170.294 76.649 173.961 81.7802 176.941C87.5272 180.278 104.917 188.881 110.888 189.33C112.217 189.43 113.728 189.221 114.673 188.18C115.3 187.489 115.626 186.379 115.615 185.45C115.593 183.738 114.415 182.549 113.093 181.636C108.894 178.736 103.63 177.174 99.0596 174.903C96.2307 173.508 93.4612 172.003 90.7511 170.389C88.041 168.775 85.3984 167.057 82.8233 165.235C80.2482 163.413 77.7488 161.493 75.325 159.474C72.9007 157.456 70.5598 155.345 68.3021 153.142C62.2357 147.264 59.5285 141.393 59.4184 132.927C70.0874 138.771 80.2507 145.405 91.0047 151.151C93.8449 152.669 96.9091 154.666 99.9002 155.813C101.24 156.327 102.884 156.189 104.169 155.575C105.17 155.096 106.153 154.255 106.414 153.125C106.673 152.006 106.132 150.923 105.424 150.098C102.176 146.313 96.8611 143.336 92.9127 140.199C82.4285 131.867 71.9643 120.688 65.3554 109.016C60.3632 100.201 56.8909 88.5742 59.7067 78.5173Z" fill="#A93339"/>
<path d="M357.464 290.134C362.081 286.237 365.379 280.483 368.901 275.623C384.991 253.423 396.634 232.624 398.899 204.764C399.206 200.99 400.44 191.178 398.071 188.171C397.317 187.215 396.406 186.756 395.203 186.694C394.007 186.632 392.749 187.052 391.872 187.876C391.213 188.494 390.929 189.251 390.828 190.135C390.449 193.416 390.691 196.877 390.551 200.187C390.333 205.336 389.734 210.7 388.84 215.777C387.537 223.169 384.014 236.3 379.827 242.472C378.031 241.248 374.704 232.287 373.252 229.666C367.427 219.15 359.668 209.596 354.209 198.888C353.184 196.925 352.302 194.9 351.563 192.813C350.824 190.726 350.235 188.597 349.796 186.427C348.506 179.82 348.93 173.294 352.793 167.565C354.797 164.594 357.616 162.53 360.676 160.738C366.141 157.539 372.361 155.362 378.12 152.729C391.854 146.451 405.754 139.916 418.298 131.461C434.531 120.521 448.38 108.944 462.164 95.0515C466.167 91.0159 474.548 80.0002 478.137 77.4742C479.101 77.3966 478.968 77.5112 479.687 78.0626C481.774 82.5366 478.587 93.3897 476.931 97.9243C469.876 117.244 456.103 134.274 439.99 146.811C438.069 148.307 433.284 151.523 435.128 154.418C435.72 155.346 437.162 156.189 438.277 156.17C442.377 156.104 463.845 142.172 469.201 138.911C471.409 137.566 473.854 135.652 476.224 134.742C476.929 134.472 477.107 134.574 477.787 134.803C478.348 135.986 477.808 137.447 477.398 138.609C470.562 157.985 452.839 170.083 434.98 178.44C432.374 179.658 420.657 183.632 419.736 185.82C419.276 186.913 419.525 188.559 420.084 189.597C420.539 190.443 421.379 190.895 422.291 191.077C425.156 191.647 428.702 190.236 431.398 189.341C441.162 186.098 450.323 181.703 459.3 176.701C463.124 174.571 466.792 172.064 470.711 170.118C467.811 182.876 459.508 192.146 448.604 199.04C441.283 203.669 432.9 207.585 424.699 210.375C420.983 211.639 416.35 212.329 412.886 214.083C411.845 214.61 411.007 215.539 410.674 216.679C410.412 217.578 410.499 218.491 410.961 219.319C411.534 220.343 412.687 220.78 413.785 220.956C419.549 221.879 434.421 217.686 440.02 215.7C443.285 214.541 446.61 212.825 449.941 211.966C450.66 211.781 450.701 211.683 451.34 212.112C451.398 215.299 446.183 220.746 444.002 222.987C435.396 231.83 423.176 237.64 411.299 240.52C408.17 241.28 404.226 241.016 401.356 242.479C400.01 243.166 399.097 244.501 399.204 246.059C399.279 247.146 399.704 247.885 400.536 248.566C404.779 252.039 428.263 247.13 434.02 246.091C434.787 245.953 437.88 245.299 438.005 246.44C438.376 249.841 432.867 256.2 430.651 258.544C422.158 267.528 410.214 271.141 398.146 271.375C393.717 271.461 389.279 271.192 384.853 271.049C383.305 272.031 380.858 273.46 380.3 275.36C380.056 276.194 380.229 276.95 380.782 277.622C383.388 280.784 400.98 280.76 405.539 281.305C398.268 287.118 391.227 292.122 382.395 295.359C378.418 296.816 374.15 298.267 370.008 299.161C367.69 299.662 362.242 299.572 360.473 300.853C359.711 297.275 358.469 293.661 357.464 290.134Z" fill="#A93339"/>
<path d="M143.112 136.102C150.781 126.196 159.985 117.321 169.839 109.61C175.863 104.894 182.301 100.98 188.979 97.2737C189.921 96.7459 190.869 96.2277 191.821 95.7191C192.773 95.2104 193.731 94.7114 194.694 94.2221C195.656 93.7322 196.623 93.2522 197.595 92.782C198.568 92.3118 199.544 91.8513 200.526 91.4003C201.507 90.9494 202.492 90.5085 203.482 90.0778C204.472 89.6465 205.466 89.2252 206.465 88.8136C207.463 88.4026 208.466 88.0014 209.472 87.6101C210.478 87.2188 211.489 86.8376 212.503 86.4665C213.517 86.0954 214.535 85.7344 215.556 85.3835C216.577 85.0326 217.602 84.6918 218.63 84.3611C219.658 84.0309 220.689 83.7108 221.724 83.4008C222.758 83.0913 223.796 82.7919 224.836 82.5026C225.876 82.2133 226.92 81.9346 227.965 81.6665C229.011 81.3979 230.06 81.1399 231.111 80.8925C232.162 80.6451 233.216 80.4083 234.271 80.1821C235.327 79.9559 236.386 79.74 237.446 79.5345C238.506 79.3295 239.568 79.1348 240.632 78.9505C241.696 78.7666 242.762 78.5932 243.829 78.43C244.897 78.2674 245.966 78.1154 247.036 77.9739C248.106 77.8325 249.178 77.7016 250.252 77.5814C251.325 77.4611 252.399 77.3517 253.474 77.2531C254.55 77.1546 255.626 77.0666 256.703 76.9892C257.78 76.9118 258.858 76.8453 259.936 76.7896C261.014 76.7339 262.093 76.6891 263.173 76.6551C264.252 76.6211 265.331 76.5977 266.411 76.5848C267.491 76.572 268.571 76.5701 269.651 76.5789C270.73 76.5878 271.81 76.6075 272.889 76.6381C273.969 76.6686 275.048 76.7098 276.127 76.7615C277.205 76.8138 278.283 76.8766 279.36 76.95C280.437 77.0235 281.514 77.1075 282.59 77.2021C283.665 77.2972 284.74 77.4029 285.814 77.5193C286.887 77.6356 287.959 77.7627 289.03 77.9007C328.89 82.8249 369.405 103.316 394.304 135.266C387.901 138.374 381.463 141.41 374.992 144.373C367.969 147.509 360.454 150.257 354.072 154.593C347.363 159.15 342.825 165.319 341.394 173.372C337.56 194.94 354.463 213.75 363.923 231.467C367.687 238.516 370.711 247.804 375.177 254.158C369.526 264.844 362.099 273.99 355.206 283.825C355.93 285.939 356.683 288.042 357.464 290.134C358.469 293.661 359.711 297.276 360.473 300.853L362.95 311.44C367.588 310.291 372.191 309.003 376.654 307.29C393.612 314.697 406.641 317.089 425.04 316.698C424.891 317.005 424.74 317.311 424.588 317.617C420.422 325.97 413.818 331.852 404.9 334.76C391.894 339.001 377.705 336.209 365.802 330.127C366.502 337.564 367.683 344.976 368.752 352.366C369.656 358.618 370.412 364.901 371.71 371.086C372.932 370.259 374.157 369.429 375.482 368.774C375.837 368.603 376.196 368.441 376.558 368.287C376.921 368.133 377.288 367.988 377.658 367.852C378.028 367.717 378.401 367.59 378.777 367.472C379.153 367.355 379.532 367.247 379.913 367.148C380.295 367.049 380.678 366.959 381.064 366.88C381.45 366.799 381.837 366.728 382.226 366.667C382.616 366.606 383.006 366.554 383.398 366.512C383.79 366.47 384.182 366.437 384.576 366.414C384.969 366.391 385.363 366.378 385.757 366.374C386.151 366.37 386.545 366.377 386.938 366.392C387.332 366.408 387.725 366.433 388.118 366.468C388.51 366.502 388.902 366.547 389.292 366.601C389.682 366.655 390.071 366.719 390.459 366.792C390.846 366.865 391.231 366.947 391.614 367.039C391.997 367.13 392.378 367.231 392.756 367.342C393.134 367.453 393.51 367.572 393.882 367.701C400.469 369.939 405.902 374.587 408.9 380.885C413.008 389.513 411.023 396.393 408.04 404.936C416.62 403.491 423.611 399.826 431.054 395.513C429.08 389.734 427.312 383.385 427.773 377.215C428.053 373.483 429.235 369.082 432.285 366.659C433.345 365.817 434.671 365.264 436.044 365.58C437.068 365.816 437.875 366.548 438.451 367.396C443.054 374.183 436.943 384.787 435.418 391.699L435.305 392.227C442.721 388.066 449.465 381.265 455.408 375.236C454.294 373.865 453.239 372.45 452.242 370.992C451.246 369.534 450.311 368.038 449.437 366.502C448.564 364.966 447.756 363.397 447.013 361.795C446.269 360.193 445.593 358.563 444.984 356.905C443.191 351.903 441.487 345.027 444.041 340.027C444.656 338.823 445.662 337.607 447.049 337.313C448.402 337.026 449.631 337.644 450.625 338.499C458.459 345.239 458.703 361.581 459.422 371.082C466.049 364.994 473.51 353.549 478.625 345.845C473.13 340.361 467.645 333.993 464.879 326.631C462.164 319.402 462.273 312.299 465.479 305.284C466.855 305.867 468.217 306.521 469.403 307.441C479.457 315.245 480.131 329.263 481.37 340.843C485.484 334.513 488.765 327.697 492.855 321.335C491.238 318.734 489.677 316.068 488.178 313.397C484.434 306.722 481.521 298.282 483.911 290.612C484.507 288.7 485.495 286.121 487.316 285.213C488.688 285.36 489.521 285.704 490.516 286.689C496.082 292.189 497.514 302.588 497.64 309.962C507.431 298.455 503.749 294.372 508.88 281.908C513.392 270.947 522.455 261.327 533.487 256.738C534.132 257.137 534.415 257.294 534.761 258.004C536.891 262.376 534.081 275.099 532.271 279.698C526.961 293.194 516.551 301.23 503.592 306.801C502.141 310.224 500.704 313.684 498.955 316.968C495.684 323.113 491.882 329.071 489.469 335.619C492.538 334.323 495.277 332.289 498.129 330.583C505.77 326.013 513.242 324.236 522.131 324.491C525.442 324.587 533.529 324.698 535.766 327.38C536.194 327.894 536.01 328.143 535.955 328.76C534.246 331.38 530.399 333.589 527.714 335.128C514.484 342.713 502.544 341.07 488.539 337.183C485.485 342.248 482.944 347.627 479.881 352.696C469.706 369.536 457.442 383.046 441.238 394.294C448.498 392.113 457.298 390.03 464.831 391.605C471.267 392.95 475.932 396.488 479.524 401.904C477.88 402.988 476.279 403.913 474.424 404.595C461.887 409.208 447.756 404.744 436.225 399.405C431.679 401.909 426.861 403.854 422.359 406.45C425.896 408.423 429.117 410.826 431.707 413.96C438.257 421.883 438.054 430.242 437.16 439.918C440.331 441.507 443.859 442.509 447.169 443.79C453.148 446.105 478.465 455.83 481.17 459.619C481.234 460.952 481.213 462.165 480.186 463.186C479.048 464.319 477.248 464.631 475.718 464.738C468.752 465.226 461.402 464.78 454.405 464.761L411.962 464.706L277.982 464.643C278.042 467.759 277.972 470.741 275.86 473.257C274.615 474.741 272.906 475.62 270.97 475.731C270.708 475.745 270.445 475.746 270.181 475.733C269.918 475.72 269.657 475.693 269.396 475.653C269.136 475.612 268.879 475.557 268.625 475.49C268.37 475.422 268.12 475.341 267.874 475.247C267.628 475.153 267.388 475.047 267.153 474.927C266.918 474.808 266.69 474.676 266.47 474.533C266.248 474.39 266.035 474.235 265.831 474.07C265.626 473.904 265.431 473.728 265.245 473.542C262.648 470.926 262.72 468 262.77 464.582L109.32 464.678L75.3759 464.641C71.5355 464.635 64.9583 465.273 61.4794 464.386C60.4481 464.123 59.4774 463.34 59.0686 462.346C58.7241 461.51 58.7759 460.384 59.1285 459.557C60.4333 456.496 95.775 441.877 101.188 440.366C100.108 434.997 99.4528 430.029 100.646 424.614C102.493 416.232 107.586 410.957 114.642 406.448C109.287 404.089 104.305 400.847 98.6064 399.333C91.9944 401.243 86.3251 406.277 79.2104 406.422C74.7919 406.513 62.8618 404.829 60.0053 401.356C59.3836 400.599 59.2298 400.058 59.5092 399.085C60.0585 397.171 62.4737 395.757 64.1037 394.91C70.8265 391.414 79.1032 389.433 86.4234 392.193C89.7316 393.44 92.7485 395.221 96.1587 396.246L96.6924 396.403C95.188 394.665 93.175 393.269 91.44 391.756C87.1227 387.991 77.3505 379.695 74.2611 375.316C70.57 376.099 66.9676 375.948 63.258 376.4C59.0782 376.911 55.0367 378.172 50.8059 378.399C42.0332 378.868 32.8686 376.141 26.2885 370.22C28.0035 368.646 29.987 367.274 32.0273 366.16C39.3127 362.182 47.429 361.838 54.9672 365.39C58.696 367.147 62.2341 369.381 66.2328 370.505C67.6869 370.913 68.4698 370.964 69.7805 370.191C69.1795 368.172 63.9403 361.828 62.3665 359.57C57.1717 352.116 52.6792 344.131 47.7343 336.501C39.1227 337.938 30.8068 340.694 22.0111 338.986C17.1231 338.037 7.57489 334.681 4.6977 330.394C4.62008 329.386 4.61343 329.177 5.29799 328.341C6.54659 326.816 10.1645 325.691 12.0171 325.054C32.5004 318.007 36.0437 333.17 45.0375 332.342L45.1979 331.546L44.7936 331.577L45.1188 331.271C44.7108 329.719 32.4982 308.367 31.1225 306.163C30.3137 304.868 29.42 303.605 28.3488 302.512C26.3402 300.462 22.9559 299.592 20.54 298.002C12.2707 292.563 6.19323 281.963 4.34361 272.38C3.63909 268.732 2.6714 260.611 5.1967 257.586C5.74597 256.928 6.51776 256.619 7.36864 256.698C9.79563 256.925 12.6669 259.661 14.5062 261.16C23.1917 268.243 28.2985 277.449 30.636 288.381C31.2297 291.16 30.8785 294.369 31.8447 297.019C33.9812 302.881 39.1626 311.596 43.0097 316.614L43.3646 317.073C43.0911 307.797 41.4233 295.132 48.2407 287.46C49.0517 286.547 49.768 286.202 51.0048 286.133C51.9215 286.423 52.4789 286.721 53.0903 287.453C55.6296 290.491 56.357 296.159 55.8928 299.958C54.9236 307.885 50.1029 314.05 43.9833 318.781C48.2474 327.21 52.7554 335.592 57.8725 343.538C57.9982 338.804 57.446 334.07 57.6515 329.322C58.0973 319.069 61.951 310.391 69.4833 303.419C71.5835 305.611 72.9682 307.989 73.6882 310.96C75.6768 319.16 72.4019 329.098 68.1948 336.101C65.9585 339.823 63.1523 343.172 60.9759 346.938L60.7172 347.391C65.9689 356.561 72.8203 365.06 79.2526 373.44C79.7065 363.706 79.7952 353.996 83.1263 344.707C83.9831 342.319 85.6331 337.269 88.3307 336.466C89.2577 336.189 90.1108 336.403 90.89 336.935C92.6428 338.133 93.558 340.867 94.0326 342.815C97.4161 356.69 89.0278 364.918 82.7485 375.776L82.5194 376.179C87.2928 381.7 93.3443 387.074 99.3316 391.253C97.3688 384.379 96.3383 377.615 98.6847 370.666C99.316 368.799 100.518 365.902 102.544 365.13C103.571 364.739 104.342 364.773 105.345 365.218C106.964 365.934 108.021 367.996 108.625 369.545C112.173 378.637 108.724 387.353 105.214 395.821C112.675 400.833 120.4 402.853 129.072 404.54C128.79 403.71 128.519 402.877 128.26 402.039C126.139 395.122 126.383 386.868 129.846 380.421C133.067 374.424 138.746 370.453 145.211 368.58C153.282 366.242 159.777 368.417 166.868 372.288C168.674 359.122 170.351 345.94 171.899 332.742C163.251 335.313 153.513 336.608 144.514 335.844C131.904 334.774 118.949 329.453 110.622 319.665C131.045 318.613 143.397 316.753 160.829 305.427C164.635 306.164 169.71 307.332 173.443 305.968C179.03 303.926 179.275 296.439 181.167 291.652C182.487 288.311 184.26 285.059 185.859 281.839C177.137 273.646 170.755 262.825 164.531 252.717C170.1 237.332 178.56 223.397 186.582 209.234C192.636 198.548 197.935 185.12 194.376 172.738C189.746 156.623 174.278 151.413 160.535 145.076C154.578 142.33 148.855 139.269 143.112 136.102Z" fill="#0A5375"/>
<path d="M329.059 226.661C329.942 226.591 330.875 226.503 331.759 226.6C333.174 226.756 334.55 227.706 335.36 228.85C336.202 230.039 336.472 231.468 336.169 232.888C335.731 234.948 334.515 236.09 332.783 237.149C332.026 237.28 331.217 237.387 330.447 237.325C329.114 237.217 327.677 236.378 326.87 235.323C325.986 234.167 325.684 232.643 325.879 231.217C326.18 229.025 327.344 227.903 329.059 226.661Z" fill="white"/>
<path d="M334.853 124.621C335.718 124.606 336.618 124.568 337.476 124.688C338.935 124.89 340.381 125.92 341.187 127.129C341.997 128.344 342.225 129.81 341.887 131.225C341.355 133.448 340.024 134.509 338.142 135.64C337.206 135.722 336.178 135.784 335.257 135.537C333.829 135.153 332.569 134.103 331.817 132.849C331.714 132.679 331.62 132.504 331.535 132.324C331.45 132.144 331.375 131.96 331.311 131.772C331.246 131.584 331.192 131.392 331.147 131.198C331.104 131.004 331.07 130.809 331.047 130.611C331.024 130.414 331.011 130.215 331.01 130.016C331.008 129.817 331.018 129.618 331.037 129.42C331.058 129.223 331.088 129.026 331.129 128.832C331.17 128.637 331.222 128.445 331.283 128.256C331.901 126.313 333.132 125.552 334.853 124.621Z" fill="white"/>
<path d="M200.694 124.628C201.714 124.568 202.782 124.488 203.785 124.735C205.217 125.088 206.441 126.136 207.162 127.404C207.259 127.573 207.346 127.746 207.425 127.924C207.504 128.102 207.573 128.284 207.633 128.469C207.693 128.654 207.743 128.842 207.783 129.032C207.823 129.222 207.853 129.414 207.873 129.608C207.893 129.802 207.903 129.996 207.903 130.191C207.902 130.385 207.892 130.579 207.872 130.772C207.851 130.966 207.821 131.158 207.78 131.348C207.739 131.539 207.689 131.726 207.629 131.912C206.929 134.041 205.672 135.051 203.711 135.988C202.897 135.943 202.041 135.894 201.247 135.706C199.608 135.32 198.189 134.01 197.418 132.552C197.33 132.388 197.25 132.22 197.18 132.048C197.109 131.876 197.048 131.701 196.997 131.523C196.944 131.344 196.902 131.163 196.869 130.98C196.835 130.797 196.811 130.613 196.798 130.428C196.784 130.243 196.78 130.057 196.786 129.871C196.791 129.685 196.807 129.5 196.832 129.316C196.856 129.132 196.891 128.949 196.935 128.769C196.98 128.588 197.033 128.41 197.096 128.235C197.765 126.338 198.967 125.513 200.694 124.628Z" fill="white"/>
<path d="M205.271 225.888C206.225 225.859 207.083 225.919 208.004 226.195C209.439 226.626 210.631 227.666 211.32 228.99C212.096 230.482 212.092 232.29 211.524 233.849C210.737 236.01 209.299 236.791 207.291 237.685C206.406 237.719 205.533 237.745 204.672 237.502C204.485 237.448 204.302 237.384 204.122 237.31C203.943 237.236 203.768 237.153 203.598 237.06C203.427 236.968 203.261 236.867 203.102 236.756C202.941 236.646 202.788 236.528 202.64 236.401C202.493 236.275 202.353 236.141 202.22 236C202.087 235.858 201.961 235.71 201.844 235.556C201.727 235.401 201.618 235.241 201.517 235.074C201.417 234.908 201.326 234.737 201.244 234.561C200.539 233.071 200.572 231.303 201.146 229.776C201.951 227.64 203.275 226.812 205.271 225.888Z" fill="white"/>
<path d="M247.024 308.86C259.308 308.513 271.519 308.721 283.804 308.837C292.708 308.92 301.695 308.729 310.581 309.345C303.211 312.261 292.82 311.054 286.807 314.579C285.057 315.605 283.485 317.383 282.024 318.79C278.55 321.639 275.501 324.99 272.018 327.859L266.025 327.929C261.675 319.422 252.133 313.937 242.897 312.492C240.102 312.055 231.041 312.367 229.355 310.888C228.871 310.463 229.014 310.627 228.998 309.937C231.759 308.191 243.319 308.905 247.024 308.86Z" fill="white"/>
<path d="M409.545 410.361C410.892 410.278 412.288 410.157 413.636 410.268C419.147 410.721 424.351 413.238 427.837 417.596C432.684 423.653 432.73 430.726 431.969 438.019C428.6 436.016 425.068 434.409 421.466 432.877C411.969 428.933 402.333 426.498 392.236 424.65C396.555 418.019 401.711 412.453 409.545 410.361Z" fill="#EE9E84"/>
<path d="M124.785 409.326C125.836 409.282 126.984 409.379 128.022 409.535C134.741 410.542 141.092 420.925 144.934 426.224C136.969 428.171 129.088 430.247 121.255 432.676C116.347 434.462 111.64 436.768 106.695 438.458C106.32 437.398 105.99 436.351 105.828 435.237C104.894 428.807 105.928 422.702 109.915 417.438C113.7 412.44 118.695 410.15 124.785 409.326Z" fill="#EE9E84"/>
<path d="M229.707 120.067C256.452 120.44 283.25 120.122 310.003 120.168C310.27 122.7 311.381 127.994 309.801 129.989C304.315 130.281 298.691 130.066 293.194 130.06L261.733 130.032C256.018 130.045 234.054 130.885 229.89 129.865C229.392 129.743 229.183 129.544 228.962 129.095C227.72 126.565 229.041 122.64 229.707 120.067Z" fill="#EE9E84"/>
<path d="M163.499 430.066C192.617 427.343 226.632 439.79 253.003 450.95C247.029 449.986 241.167 448.366 235.213 447.267C218.063 444.104 200.862 441.539 183.427 440.786C153.08 439.219 123.744 443.283 94.4238 450.958C107.963 442.199 129.618 434.901 145.541 431.993C151.489 430.907 157.476 430.475 163.499 430.066Z" fill="white"/>
<path d="M367.998 428.979C396.231 428.957 419.115 435.748 443.574 450C437.561 448.944 431.825 446.641 425.814 445.492C420.497 444.439 415.156 443.532 409.789 442.774C404.423 442.015 399.04 441.406 393.64 440.945C388.239 440.484 382.83 440.173 377.413 440.012C371.996 439.85 366.578 439.839 361.16 439.977C350.851 440.851 340.607 441.008 330.327 442.438C315.725 444.471 301.433 448.106 286.977 450.864C313.245 439.209 339.131 430.7 367.998 428.979Z" fill="white"/>
<path d="M151.066 373.108C156.668 372.907 161.513 375.562 165.75 378.923C164.298 393.581 161.299 409.589 159.118 424.345L151.505 424.864L150.185 423.25C143.553 415.806 134.346 405.996 132.682 395.921C131.806 390.614 133.025 385.467 136.219 381.129C139.909 376.115 145.107 373.916 151.066 373.108Z" fill="#EE9E84"/>
<path d="M383.335 371.957C388.374 371.664 393.109 372.7 397.275 375.687C397.548 375.88 397.816 376.08 398.079 376.287C398.342 376.494 398.599 376.708 398.85 376.928C399.102 377.149 399.347 377.375 399.587 377.608C399.827 377.841 400.061 378.08 400.289 378.325C400.516 378.57 400.738 378.821 400.952 379.077C401.167 379.334 401.375 379.595 401.576 379.862C401.777 380.129 401.971 380.402 402.158 380.679C402.345 380.956 402.525 381.238 402.698 381.524C402.871 381.811 403.036 382.101 403.194 382.397C403.352 382.691 403.501 382.99 403.643 383.292C403.786 383.595 403.92 383.901 404.046 384.211C404.173 384.52 404.291 384.833 404.402 385.149C404.512 385.465 404.614 385.783 404.708 386.104C404.802 386.425 404.888 386.748 404.965 387.073C405.042 387.398 405.111 387.726 405.171 388.055C405.232 388.383 405.284 388.714 405.327 389.045C406.91 400.592 397.547 411.007 391.139 419.614C389.941 421.267 388.639 422.772 387.283 424.295C383.619 423.564 379.981 423.317 376.254 423.201C375.986 408.099 374.383 392.62 372.594 377.621C375.857 374.618 378.959 372.879 383.335 371.957Z" fill="#EE9E84"/>
<path d="M265.944 87.3986C272.954 86.6068 279.937 87.9316 286.297 90.9485C296.172 95.6317 304.456 104.599 308.162 114.889L273.45 114.937C259.276 115.105 245.034 115.266 230.863 114.96C232.33 110.78 234.293 106.932 237.043 103.44C237.483 102.886 237.935 102.343 238.401 101.811C238.866 101.279 239.345 100.759 239.836 100.251C240.328 99.7425 240.831 99.2467 241.347 98.7632C241.863 98.2802 242.39 97.8098 242.929 97.3519C243.468 96.8946 244.018 96.4508 244.579 96.0205C245.14 95.5903 245.711 95.1741 246.292 94.7719C246.873 94.3698 247.464 93.9822 248.065 93.6091C248.665 93.236 249.274 92.878 249.893 92.5349C250.511 92.1919 251.137 91.8642 251.771 91.5517C252.405 91.2398 253.047 90.9433 253.696 90.6624C254.345 90.382 255 90.1176 255.662 89.8692C256.324 89.6208 256.991 89.3889 257.664 89.1735C258.338 88.9582 259.016 88.7593 259.699 88.577C260.382 88.3951 261.069 88.23 261.761 88.0817C262.452 87.9338 263.146 87.8027 263.844 87.6884C264.542 87.5745 265.242 87.4779 265.944 87.3986Z" fill="#EE9E84"/>
<path d="M265.222 138.788C275.453 137.543 286.889 140.732 295.112 146.902C295.737 147.361 296.35 147.837 296.951 148.328C297.552 148.819 298.141 149.324 298.716 149.845C299.291 150.366 299.853 150.901 300.402 151.45C300.95 151.999 301.484 152.561 302.004 153.137C302.524 153.714 303.029 154.303 303.519 154.905C304.009 155.507 304.484 156.12 304.942 156.746C305.401 157.372 305.844 158.009 306.27 158.657C306.697 159.305 307.107 159.964 307.5 160.633C307.894 161.303 308.27 161.981 308.628 162.669C308.987 163.357 309.328 164.054 309.651 164.76C309.975 165.465 310.28 166.178 310.567 166.899C310.855 167.62 311.124 168.348 311.375 169.082C311.625 169.817 311.857 170.557 312.07 171.304C312.283 172.05 312.476 172.801 312.651 173.557C312.826 174.313 312.981 175.073 313.118 175.838C313.254 176.602 313.371 177.368 313.468 178.138C315.152 190.912 311.982 203.976 303.992 214.164C296.139 224.179 285.72 229.189 273.246 230.682C261.229 231.102 249.761 228.675 240.054 221.178C230.643 213.909 224.943 202.47 223.547 190.79C223.452 190.024 223.375 189.256 223.317 188.486C223.26 187.717 223.221 186.947 223.202 186.175C223.183 185.403 223.183 184.632 223.202 183.86C223.221 183.088 223.259 182.318 223.316 181.548C223.374 180.779 223.451 180.011 223.546 179.245C223.642 178.479 223.757 177.716 223.89 176.956C224.024 176.196 224.177 175.439 224.348 174.687C224.519 173.935 224.709 173.187 224.918 172.444C225.126 171.701 225.353 170.963 225.598 170.231C225.843 169.499 226.107 168.774 226.388 168.056C226.67 167.336 226.968 166.625 227.285 165.921C227.602 165.218 227.936 164.522 228.287 163.835C228.639 163.148 229.007 162.469 229.392 161.801C229.777 161.132 230.178 160.473 230.596 159.824C231.014 159.175 231.448 158.537 231.897 157.91C232.347 157.283 232.812 156.667 233.292 156.063C241.377 145.958 252.439 140.22 265.222 138.788Z" fill="white"/>
<path d="M206.127 334.178L332.527 334.187C332.881 349.936 332.692 365.74 332.68 381.497L332.7 428.198C326.301 429.814 319.975 431.678 313.722 433.792C298.706 439.381 284.459 445.946 269.956 452.715C249.781 442.51 228.209 433.675 206.091 428.814C205.881 418.73 206.27 408.634 206.176 398.548C205.976 377.149 205.465 355.564 206.127 334.178Z" fill="white"/>
<path d="M265.338 349.829C270.654 349.074 276.231 350.283 280.966 352.73C287.237 355.971 291.756 361.576 293.827 368.308C294.416 370.21 294.775 372.155 294.903 374.143C295.162 377.744 295.552 399.939 294.241 402.373C290.528 404.131 276.906 403.192 271.953 403.183C266.502 403.183 248.253 404.116 243.988 402.752C243.254 401.664 243.006 400.341 242.798 399.06C242.193 395.32 242.517 391.138 242.529 387.342C242.559 377.433 241.842 368.083 248.112 359.71C252.328 354.081 258.431 350.77 265.338 349.829Z" fill="#0A5375"/>
<path d="M263.756 236.381C264.64 236.237 265.593 236.246 266.489 236.205C288.329 235.217 312.306 244.83 328.311 259.499C337.364 267.797 344.912 277.596 349.717 288.957C356.367 304.68 358.837 325.987 361.39 342.868C365.467 369.829 369.302 396.063 370.408 423.376C359.72 423.795 349.079 424.825 338.637 427.199C338.525 406.59 338.545 385.982 338.699 365.373C338.747 355.139 339.284 344.62 338.722 334.417C338.652 333.148 338.678 330.866 337.732 329.983C334.239 326.72 323.893 328.117 319.156 328.187C324.058 323.056 339.073 309.326 339.668 302.972C339.855 300.976 339.328 299.076 337.969 297.581C336.326 295.774 333.747 294.426 331.255 294.82C326.216 295.616 322.171 300.172 317.733 302.444C312.459 305.144 290.176 303.896 283.287 303.483C287.429 298.198 291.116 293.104 291.419 286.132C291.431 285.763 291.436 285.394 291.431 285.025C291.426 284.656 291.413 284.287 291.391 283.919C291.368 283.55 291.337 283.182 291.297 282.816C291.257 282.448 291.208 282.083 291.15 281.718C291.093 281.353 291.027 280.99 290.951 280.629C290.877 280.267 290.793 279.908 290.701 279.55C290.609 279.193 290.508 278.838 290.398 278.485C290.289 278.133 290.171 277.783 290.045 277.436C289.919 277.089 289.785 276.745 289.642 276.405C289.5 276.064 289.349 275.727 289.19 275.394C289.031 275.061 288.864 274.732 288.69 274.407C288.516 274.081 288.333 273.76 288.143 273.443C287.953 273.127 287.756 272.815 287.551 272.508C287.346 272.201 287.134 271.899 286.914 271.603C286.695 271.305 286.468 271.014 286.235 270.728C286.001 270.442 285.761 270.162 285.514 269.888C281.159 265.088 275.479 262.671 269.075 262.317C267.544 262.377 266.022 262.535 264.51 262.791C259.261 263.671 254.225 267.033 251.21 271.373C247.839 276.227 246.631 282.567 247.814 288.344C249.2 295.108 253.478 299.354 259.029 302.898C248.607 303.632 237.999 302.869 227.549 303.127C225.729 303.172 222.849 304.945 221.338 304.692C219.244 304.343 212.592 297.777 208.899 296.495C206.882 295.795 204.551 295.499 202.605 296.555C199.76 298.098 198.764 300.87 197.956 303.777C198.368 305.397 198.772 307.003 199.657 308.438C203.186 314.159 213.692 322.88 218.795 328.573C214.392 328.681 204.078 327.629 200.769 330.144C199.444 335.054 200.272 352.534 200.278 358.669C200.301 381.637 200.511 404.624 200.243 427.589C188.259 425.22 176.911 424.45 164.697 424.318C165.434 419.207 166.559 414.137 167.32 409.022L173.874 362.035L178.062 332.37C179.57 321.692 180.714 311.094 184.058 300.771C184.591 299.143 185.163 297.529 185.774 295.929C186.386 294.33 187.037 292.746 187.727 291.178C188.418 289.61 189.146 288.061 189.913 286.529C190.679 284.998 191.484 283.486 192.325 281.994C193.167 280.502 194.044 279.032 194.958 277.583C195.872 276.135 196.822 274.71 197.806 273.308C198.791 271.907 199.809 270.531 200.862 269.179C201.914 267.828 203 266.503 204.117 265.206C219.05 247.945 241.224 238.014 263.756 236.381Z" fill="white"/>
</svg>
